<svg viewBox="0 0 1024 1024" xmlns="http://www.w3.org/2000/svg">
  <path d="M942.4 512.064c-27.072-57.792-61.248-110.016-101.376-155.648l-67.648 67.648c30.528 35.072 56.64 74.112 77.504 116.352-76.8 163.2-236.8 275.2-438.88 275.2-47.616 0-93.696-7.168-137.344-20.16l-73.472 73.472c64.512 27.264 134.784 42.688 210.816 42.688 217.6 0 403.2-134.4 480-320a675.84 675.84 0 0 0-49.6-79.552zM819.2 204.8L204.8 819.2l-45.248-45.248L774.016 159.488 819.2 204.8zM262.784 599.104c-26.944-34.176-49.792-71.744-68.384-111.104 76.8-163.2 236.8-275.2 438.88-275.2 37.888 0 74.624 4.672 109.888 13.312l-76.032 76.032A210.56 210.56 0 0 0 633.28 288a213.333 213.333 0 0 0-213.333 213.333c0 12.096 1.088 23.936 3.072 35.456l-92.608 92.608a679.68 679.68 0 0 1-67.648-30.293zM512 362.667c11.52 0 22.784 1.28 33.6 3.584L400.256 511.595A127.403 127.403 0 0 1 384 476c0-70.613 57.387-128 128-128zm0 341.333a128.427 128.427 0 0 1-33.024-4.352l145.28-145.28c2.112 10.56 3.744 21.312 3.744 32.632 0 70.613-57.387 128-128 128z" />
</svg>
